<?xml version="1.0" standalone="no"?>
<!DOCTYPE svg PUBLIC "-//W3C//DTD SVG 20010904//EN"
 "http://www.w3.org/TR/2001/REC-SVG-20010904/DTD/svg10.dtd">
<svg version="1.0" xmlns="http://www.w3.org/2000/svg"
 width="800.000000pt" height="800.000000pt" viewBox="0 0 800.000000 800.000000"
 preserveAspectRatio="xMidYMid meet">
<metadata>
Created by potrace 1.11, written by Peter Selinger 2001-2013
</metadata>
<g transform="translate(0.000000,800.000000) scale(0.100000,-0.100000)"
fill="#000000" stroke="none">
<path d="M3065 7709 c-4 -5 -10 -7 -14 -4 -12 7 -100 -52 -140 -95 -59 -62
-70 -77 -235 -332 -158 -246 -243 -281 -428 -177 -75 42 -150 92 -280 185
-211 151 -326 220 -411 245 -128 39 -238 -3 -264 -101 -11 -42 -8 -123 7 -182
31 -123 144 -365 258 -553 30 -49 60 -100 66 -112 6 -13 14 -23 19 -23 4 0 7
-7 7 -15 0 -8 5 -15 10 -15 6 0 10 -6 10 -13 0 -7 9 -23 20 -35 11 -12 20 -23
20 -26 0 -9 84 -131 93 -134 4 -2 7 -8 7 -13 0 -8 44 -70 84 -120 7 -9 28 -39
47 -68 l34 -51 1112 0 1112 0 72 103 c40 56 76 104 81 105 4 2 8 7 8 11 0 8
148 232 169 257 5 6 17 26 26 45 10 19 21 36 24 39 12 9 161 268 161 279 0 6
3 11 8 11 6 0 33 50 38 70 0 3 19 44 42 92 93 196 122 346 78 410 -50 74 -157
91 -271 44 -38 -16 -164 -93 -175 -107 -3 -3 -34 -30 -70 -59 -36 -29 -74 -62
-86 -74 -11 -12 -42 -39 -69 -61 -27 -22 -60 -50 -73 -62 -14 -13 -28 -23 -33
-23 -4 0 -14 -7 -22 -14 -20 -21 -82 -54 -128 -70 -115 -40 -229 39 -419 290
-41 54 -77 101 -80 104 -3 3 -17 21 -31 40 -56 74 -142 153 -209 189 -47 26
-164 39 -175 20z"/>
<path d="M1787 5660 c-95 -97 -206 -213 -247 -259 -41 -45 -86 -95 -100 -110
-14 -15 -52 -58 -85 -96 -33 -38 -67 -76 -75 -85 -8 -9 -27 -31 -41 -50 -15
-19 -35 -44 -46 -55 -10 -11 -58 -69 -106 -130 -49 -60 -94 -117 -100 -125 -7
-8 -41 -53 -75 -100 -35 -47 -69 -92 -75 -100 -47 -60 -67 -90 -67 -98 0 -6
-4 -12 -9 -14 -25 -9 -302 -455 -390 -628 -24 -47 -48 -89 -52 -94 -5 -6 -9
-17 -9 -25 0 -8 -7 -22 -16 -32 -8 -9 -17 -23 -18 -31 -3 -15 -15 -43 -49
-118 -23 -52 -97 -243 -101 -265 -2 -5 -13 -41 -25 -80 -12 -38 -25 -81 -27
-95 -3 -14 -10 -43 -16 -65 -13 -50 -16 -69 -24 -125 -3 -25 -8 -48 -10 -51
-2 -3 -7 -34 -11 -70 -12 -99 -7 -494 7 -494 1 0 4 -13 6 -30 6 -38 43 -183
54 -210 49 -125 91 -214 134 -285 29 -47 58 -96 66 -110 8 -14 17 -27 20 -30
3 -3 30 -36 59 -75 71 -92 315 -335 337 -335 4 0 14 -8 23 -18 15 -17 171
-124 216 -148 11 -6 38 -21 60 -34 82 -48 265 -134 350 -166 90 -33 342 -115
370 -120 17 -2 44 -9 60 -14 53 -17 246 -55 379 -76 21 -3 48 -7 60 -10 11 -2
41 -6 66 -9 25 -3 61 -7 80 -10 35 -5 127 -14 210 -21 319 -27 952 -21 1230
12 30 3 71 7 90 9 34 2 117 13 170 21 14 2 41 6 60 8 20 2 74 11 120 20 115
21 127 23 191 39 51 13 60 12 93 -4 20 -9 36 -16 36 -14 0 2 15 -2 33 -10 43
-17 247 -62 322 -70 159 -17 342 -22 431 -11 51 6 53 6 94 -35 106 -105 356
-206 575 -234 17 -2 53 -7 80 -11 113 -16 471 -8 569 12 12 2 37 7 56 10 53 8
220 54 260 71 131 56 215 108 266 165 35 39 85 123 78 131 -6 6 17 14 61 22
101 17 219 52 293 86 35 16 66 29 68 29 15 0 123 78 160 115 63 65 86 117 89
200 3 75 -9 111 -56 179 -27 37 -27 39 -10 57 44 47 66 112 65 189 -1 78 -19
131 -63 177 l-20 21 24 34 c47 65 59 100 59 178 0 78 -20 136 -64 183 -19 19
-18 21 11 63 77 112 77 231 1 335 -27 36 -29 43 -16 56 7 8 14 18 14 23 0 5 6
15 13 22 54 58 58 226 5 293 -4 6 -17 21 -27 35 l-19 25 33 45 c75 103 69 240
-16 348 -18 24 -18 24 11 60 78 97 78 224 1 335 l-30 44 22 24 c76 84 86 229
22 323 -28 42 -31 59 -12 78 23 24 49 89 54 138 19 178 -148 338 -445 426 -48
14 -96 27 -107 29 -11 1 -20 3 -20 5 0 2 -5 3 -85 14 -150 22 -178 24 -335 25
-145 0 -188 -3 -340 -23 -113 -15 -294 -71 -400 -123 -66 -33 -160 -102 -178
-130 -4 -6 -14 -18 -21 -25 -32 -33 -53 -89 -60 -165 -3 -40 21 -119 51 -165
24 -35 25 -40 10 -56 -9 -10 -26 -40 -38 -67 -41 -91 -25 -194 43 -286 l20
-27 -23 -31 c-12 -16 -27 -27 -33 -24 -6 4 -24 16 -41 28 -61 44 -227 114
-308 130 -43 9 -54 18 -84 73 -63 111 -78 137 -83 142 -3 3 -28 41 -55 85 -65
106 -91 145 -115 175 -11 14 -20 31 -20 38 0 6 -3 12 -7 12 -5 0 -24 25 -43
55 -19 30 -38 55 -42 55 -5 0 -8 5 -8 11 0 10 -176 255 -204 285 -6 6 -18 22
-26 34 -8 13 -88 115 -177 226 -166 209 -171 214 -213 262 -14 15 -43 50 -65
77 -36 43 -268 307 -317 360 -19 20 -25 20 -1144 21 l-1125 0 -172 -176z
m5366 -964 c48 -3 98 -8 110 -10 12 -3 40 -8 62 -10 70 -10 98 -16 200 -51
119 -39 196 -82 248 -138 35 -37 38 -45 33 -79 -4 -21 -14 -46 -24 -56 -80
-80 -229 -148 -398 -182 -27 -5 -58 -11 -69 -14 -125 -26 -485 -27 -616 -1
-13 3 -37 7 -54 10 -16 3 -43 8 -60 12 -16 4 -32 7 -35 8 -26 5 -155 53 -190
70 -209 106 -216 204 -22 312 34 19 68 36 75 37 6 2 19 6 27 9 96 40 272 74
425 83 55 4 101 7 102 8 2 2 83 -2 186 -8z m-3993 -220 c69 0 130 -1 136 -3 8
-3 11 -50 10 -144 -1 -78 1 -144 4 -149 3 -4 39 -10 80 -13 127 -10 334 -60
365 -88 5 -5 17 -9 26 -9 10 0 20 -3 22 -7 3 -5 -6 -48 -19 -98 -23 -86 -27
-104 -38 -152 -9 -44 -39 -143 -42 -143 -2 0 -29 11 -60 25 -31 14 -67 27 -79
29 -13 2 -32 9 -42 14 -69 37 -319 58 -424 37 -168 -35 -235 -161 -149 -281
34 -48 186 -128 375 -198 207 -77 329 -147 420 -240 65 -67 77 -83 103 -136
61 -128 71 -284 29 -457 -10 -39 -65 -147 -92 -178 -49 -58 -120 -125 -137
-131 -10 -3 -18 -9 -18 -13 0 -4 -18 -16 -40 -26 -22 -10 -40 -21 -40 -25 0
-4 -10 -10 -22 -13 -13 -3 -47 -14 -77 -26 -29 -11 -77 -25 -107 -32 l-54 -12
-2 -176 -3 -176 -165 0 -165 0 -3 163 c-1 89 -6 163 -10 163 -14 3 -47 7 -102
13 -30 3 -64 7 -75 9 -11 3 -38 7 -60 11 -71 12 -218 58 -281 87 l-62 29 50
200 c28 110 54 200 58 200 4 0 34 -12 66 -27 33 -15 61 -28 64 -29 3 0 19 -6
35 -13 17 -7 35 -14 40 -15 6 -1 15 -5 21 -8 29 -19 229 -50 324 -51 105 -1
231 22 238 43 2 6 10 10 17 10 14 0 84 73 86 90 1 10 4 23 9 38 1 4 1 25 0 47
-5 113 -99 189 -341 275 -63 23 -123 45 -134 50 -11 5 -51 23 -90 40 -63 28
-150 78 -182 105 -7 5 -30 23 -51 40 -110 86 -182 233 -187 385 -6 199 78 375
236 493 47 35 175 101 214 111 17 4 53 14 82 22 l52 15 0 132 c-1 197 -1 195
19 200 9 2 24 1 32 -3 8 -3 71 -5 140 -4z m3146 -402 c33 -14 68 -29 79 -34
25 -11 132 -41 165 -47 42 -7 54 -10 70 -16 14 -5 32 -8 175 -24 117 -14 451
-6 515 12 8 2 32 6 52 9 21 3 59 11 85 17 27 6 55 12 63 14 8 2 16 4 18 5 1 2
5 3 10 5 4 1 21 5 37 10 17 4 66 23 110 42 44 18 85 33 91 33 17 0 36 -63 29
-91 -25 -97 -260 -208 -515 -243 -25 -4 -63 -9 -85 -13 -54 -8 -327 -8 -395 0
-30 4 -71 9 -91 11 -52 7 -221 47 -242 58 -10 5 -26 11 -36 13 -42 8 -157 73
-196 110 -48 47 -58 81 -37 125 18 37 24 37 98 4z m-819 -297 c209 -40 365
-100 449 -174 31 -27 55 -80 49 -106 -10 -38 -64 -89 -137 -130 -45 -25 -218
-90 -218 -82 0 2 -10 1 -23 -4 -13 -5 -41 -12 -61 -15 -21 -4 -41 -8 -45 -10
-29 -18 -449 -28 -554 -13 -349 49 -602 176 -573 290 13 54 137 142 261 186
55 19 181 49 236 56 30 4 72 10 94 14 70 13 433 4 522 -12z m809 -88 c16 -7
31 -13 34 -14 3 -1 19 -7 35 -14 64 -25 83 -31 160 -50 91 -22 189 -38 290
-48 85 -8 336 -11 350 -4 5 3 26 6 45 7 37 2 109 11 150 19 14 3 34 7 45 9
106 20 302 85 334 109 10 9 20 3 42 -23 43 -52 37 -93 -21 -151 -44 -44 -182
-110 -300 -142 -50 -14 -68 -18 -137 -31 -144 -28 -501 -27 -636 0 -12 2 -35
7 -52 9 -16 3 -55 13 -85 22 -30 9 -59 16 -63 15 -18 -5 -214 98 -244 127 -30
31 -51 73 -47 99 1 6 2 16 3 21 2 14 53 61 61 56 4 -2 20 -10 36 -16z m-8
-408 c34 -18 108 -48 137 -56 17 -5 35 -10 40 -11 18 -6 179 -42 215 -48 122
-21 412 -28 540 -13 107 12 122 14 200 30 69 14 226 64 307 98 29 12 33 11 52
-12 46 -53 35 -107 -31 -164 -183 -156 -690 -232 -1069 -160 -95 17 -199 43
-224 54 -11 5 -46 21 -78 35 -156 68 -217 160 -154 232 22 26 37 29 65 15z
m-1786 -126 c4 -5 8 -6 8 -1 0 5 7 3 15 -4 8 -7 15 -10 15 -7 0 3 15 0 33 -8
53 -22 197 -58 282 -70 97 -14 111 -15 231 -19 66 -3 125 -6 130 -7 5 -1 11
-1 14 0 3 1 39 4 80 6 41 2 89 6 105 9 17 3 57 8 90 12 33 3 63 8 68 11 4 2
20 7 35 9 83 15 195 51 280 90 41 19 56 14 82 -28 39 -65 5 -118 -131 -201
-44 -27 -195 -76 -297 -96 -158 -32 -355 -42 -527 -27 -94 8 -245 33 -280 46
-14 5 -25 8 -25 6 0 -7 -131 43 -188 72 -30 15 -75 46 -100 68 -37 35 -45 48
-46 81 0 28 7 48 24 70 25 30 25 30 60 14 19 -9 38 -20 42 -26z m3282 -308
c15 -19 26 -44 26 -56 0 -26 -25 -67 -60 -98 -51 -45 -226 -124 -310 -140 -14
-2 -43 -8 -65 -13 -57 -13 -85 -12 -85 3 0 19 -106 124 -141 139 -16 7 -29 16
-29 19 0 4 -10 9 -22 12 -36 10 -16 17 63 21 67 4 108 9 179 22 14 2 41 7 60
10 79 12 257 68 315 98 40 21 40 21 69 -17z m-3330 -76 c5 -7 115 -53 139 -57
4 -1 8 -2 10 -4 1 -1 9 -3 17 -5 8 -2 40 -11 70 -20 30 -8 70 -17 89 -20 18
-2 41 -6 50 -9 15 -4 81 -13 171 -22 104 -11 429 -2 453 13 19 12 4 -17 -24
-43 -43 -41 -88 -130 -89 -175 0 -9 -8 -19 -17 -21 -44 -11 -383 2 -456 18
-12 3 -34 6 -49 9 -15 2 -32 6 -37 9 -5 3 -26 8 -47 12 -22 3 -79 22 -129 41
-161 64 -243 137 -232 205 8 46 65 95 81 69z m2061 -95 c100 -9 142 -16 257
-41 53 -11 158 -50 218 -81 107 -54 170 -127 151 -176 -23 -59 -157 -154 -246
-175 -5 -1 -36 -11 -67 -22 -31 -11 -74 -22 -95 -26 -21 -3 -46 -8 -55 -11 -9
-3 -34 -7 -55 -9 -21 -2 -69 -7 -108 -11 -211 -23 -487 1 -673 57 -80 24 -222
89 -222 101 0 4 -6 8 -12 9 -21 0 -78 79 -78 107 0 118 299 252 620 277 41 3
75 7 77 9 4 4 214 -2 288 -8z m1259 -230 c84 -78 7 -181 -195 -262 -35 -14
-75 -27 -89 -30 -14 -3 -32 -7 -40 -10 -8 -3 -26 -8 -40 -11 -42 -8 -55 -11
-55 -13 0 -1 -18 -3 -40 -5 -33 -4 -44 0 -68 25 l-28 28 32 33 c17 18 43 56
56 86 13 29 31 54 39 54 8 1 17 2 22 3 42 11 71 17 92 21 50 9 226 69 255 87
17 10 31 18 32 18 1 0 13 -11 27 -24z m-3309 -96 c13 -9 184 -71 210 -76 11
-2 54 -10 95 -19 92 -19 108 -22 190 -31 86 -10 318 -12 382 -4 46 6 54 4 81
-20 l31 -27 -41 -49 c-22 -27 -47 -67 -55 -89 l-16 -40 -178 0 c-204 1 -274 8
-426 47 -140 35 -260 91 -318 147 -62 59 -63 101 -5 167 10 11 29 9 50 -6z
m1254 -327 c70 -26 183 -55 271 -69 19 -3 46 -7 60 -10 55 -10 192 -17 310
-16 112 1 225 7 225 12 0 1 18 3 40 6 83 8 204 36 314 74 l115 38 25 -19 c32
-25 51 -52 61 -89 7 -24 3 -36 -20 -69 -16 -22 -40 -45 -52 -52 -13 -7 -25
-15 -28 -18 -25 -31 -270 -117 -358 -125 -23 -3 -45 -7 -49 -9 -15 -9 -179
-21 -298 -21 -115 0 -241 8 -295 19 -14 3 -41 8 -60 11 -141 25 -320 94 -380
147 -41 36 -70 78 -70 103 0 50 76 132 110 118 8 -3 44 -17 79 -31z m2054 14
c52 -57 49 -99 -10 -156 -71 -68 -214 -133 -358 -162 -97 -21 -102 -20 -120 7
-16 25 -16 28 10 76 15 27 29 64 32 81 6 41 11 45 57 53 84 13 224 54 297 88
63 29 76 30 92 13z m-3248 -124 c68 -29 161 -57 218 -67 15 -3 35 -7 45 -10
16 -5 47 -10 142 -22 114 -13 270 -18 381 -10 66 5 67 5 79 -23 10 -25 8 -35
-14 -77 -13 -27 -28 -66 -31 -86 -7 -36 -9 -38 -49 -39 -187 -7 -394 5 -412
23 -3 4 -12 4 -19 2 -15 -6 -122 18 -207 47 -143 47 -268 129 -282 183 -11 45
33 122 64 112 8 -2 47 -17 85 -33z m3275 -334 c7 -16 9 -40 6 -55 -7 -25 -70
-94 -87 -94 -4 0 -14 -6 -21 -13 -37 -35 -189 -91 -329 -120 l-65 -14 -17 26
c-9 14 -22 34 -29 43 -10 14 -9 21 9 40 25 28 53 81 53 102 0 14 15 19 85 32
53 9 215 54 233 64 9 5 40 18 67 29 57 22 73 15 95 -40z m-2216 42 c13 -20
238 -97 341 -117 22 -4 47 -9 55 -10 123 -25 421 -36 555 -20 33 4 79 9 103
11 31 3 196 40 272 60 14 4 53 20 128 52 45 20 84 34 86 32 2 -2 8 -18 13 -35
32 -94 -159 -217 -417 -268 -14 -3 -34 -7 -46 -10 -23 -5 -107 -16 -164 -22
-51 -5 -288 -5 -335 0 -22 3 -65 7 -95 10 -129 11 -330 72 -430 129 -54 31
-120 104 -120 133 0 47 36 84 54 55z m-1074 -116 c113 -47 260 -85 391 -101
24 -3 60 -7 79 -10 30 -5 339 -7 395 -3 56 4 58 -7 11 -85 -19 -32 -37 -75
-41 -96 -4 -21 -12 -40 -18 -43 -17 -6 -356 0 -387 7 -14 3 -45 9 -70 12 -25
3 -58 9 -75 14 -16 5 -41 11 -55 13 -14 2 -32 6 -40 9 -8 3 -44 16 -79 29
-141 50 -240 124 -249 186 -5 36 40 106 63 98 6 -2 39 -16 75 -30z m1150 -285
c98 -40 210 -74 285 -85 17 -3 41 -7 55 -10 25 -5 56 -9 160 -20 100 -11 335
-6 445 9 50 7 107 17 180 32 62 12 184 52 272 90 41 18 39 20 66 -26 16 -27
22 -50 19 -67 -5 -29 -80 -108 -112 -118 -11 -3 -20 -11 -20 -17 0 -6 -3 -8
-7 -5 -3 4 -16 1 -27 -7 -19 -12 -160 -64 -195 -71 -9 -2 -47 -10 -86 -18
-189 -41 -512 -42 -705 -3 -19 4 -42 8 -50 10 -71 13 -218 65 -262 93 -21 12
-40 23 -44 23 -12 0 -57 41 -81 72 -30 41 -29 79 3 117 14 17 27 31 29 31 1 0
35 -13 75 -30z m2114 -15 c62 -61 39 -124 -69 -197 -38 -26 -80 -49 -92 -53
-12 -3 -35 -10 -50 -17 -15 -6 -32 -12 -38 -14 -58 -17 -125 -35 -145 -39 -14
-3 -35 -7 -47 -9 -16 -3 -31 5 -53 30 -32 37 -38 62 -16 70 8 3 26 32 40 65
15 32 32 59 39 60 7 0 21 3 32 5 11 3 31 6 45 9 14 2 40 9 58 14 18 5 33 9 35
9 8 -3 153 47 155 54 2 4 7 6 11 4 4 -3 21 4 37 14 16 10 30 19 31 19 1 1 13
-10 27 -24z m-3249 -125 c0 1 12 -3 27 -9 37 -14 206 -59 243 -65 17 -2 30 -5
30 -6 0 -1 16 -3 35 -5 19 -2 58 -7 85 -11 28 -3 142 -7 255 -8 113 0 211 -5
218 -9 10 -7 7 -17 -13 -43 -29 -38 -52 -87 -59 -129 -3 -16 -9 -32 -14 -37
-8 -8 -248 -11 -327 -3 -60 6 -138 16 -160 20 -11 3 -41 9 -67 14 -67 14 -191
57 -246 85 -152 78 -196 159 -126 229 l25 25 47 -25 c26 -14 47 -24 47 -23z
m1244 -314 c46 -15 100 -29 120 -32 20 -3 39 -8 42 -10 4 -2 24 -6 45 -10 22
-3 50 -7 64 -9 143 -24 465 -24 590 0 14 2 41 7 60 9 60 9 208 44 225 54 6 4
15 7 20 8 29 6 115 42 129 53 14 12 20 11 38 -5 73 -66 44 -144 -82 -218 -107
-63 -241 -102 -440 -131 -93 -13 -414 -14 -488 -1 -18 3 -52 8 -75 12 -23 3
-46 7 -52 8 -5 2 -23 6 -40 10 -72 17 -172 50 -192 64 -13 8 -23 11 -23 8 0
-3 -18 5 -40 19 -22 14 -43 25 -47 25 -3 0 -26 21 -50 46 -53 58 -57 97 -14
143 l28 30 49 -23 c27 -13 87 -36 133 -50z"/>
</g>
</svg>
